<?xml version="1.0" encoding="UTF-8" standalone="no"?>
<!-- Generator: Adobe Illustrator 19.0.0, SVG Export Plug-In . SVG Version: 6.00 Build 0)  -->

<svg
   xmlns:dc="http://purl.org/dc/elements/1.1/"
   xmlns:cc="http://creativecommons.org/ns#"
   xmlns:rdf="http://www.w3.org/1999/02/22-rdf-syntax-ns#"
   xmlns:svg="http://www.w3.org/2000/svg"
   xmlns="http://www.w3.org/2000/svg"
   xmlns:sodipodi="http://sodipodi.sourceforge.net/DTD/sodipodi-0.dtd"
   xmlns:inkscape="http://www.inkscape.org/namespaces/inkscape"
   version="1.1"
   id="Layer_1"
   x="0px"
   y="0px"
   viewBox="0 0 64.952179 64.989204"
   xml:space="preserve"
   inkscape:version="0.91 r13725"
   sodipodi:docname="gifts.svg"
   width="64.952179"
   height="64.989204"><metadata
     id="metadata4248"><rdf:RDF><cc:Work
         rdf:about=""><dc:format>image/svg+xml</dc:format><dc:type
           rdf:resource="http://purl.org/dc/dcmitype/StillImage" /><dc:title></dc:title></cc:Work></rdf:RDF></metadata><defs
     id="defs4246"><clipPath
       clipPathUnits="userSpaceOnUse"
       id="clipPath4816"><rect
         style="opacity:1;fill:#006600;fill-opacity:0.4;stroke:none;stroke-width:5;stroke-linecap:butt;stroke-linejoin:round;stroke-miterlimit:4;stroke-dasharray:30, 5;stroke-dashoffset:0;stroke-opacity:1"
         id="rect4818"
         width="80"
         height="80"
         x="8"
         y="8" /></clipPath><clipPath
       clipPathUnits="userSpaceOnUse"
       id="clipPath4820"><rect
         style="opacity:1;fill:#006600;fill-opacity:0.4;stroke:none;stroke-width:5;stroke-linecap:butt;stroke-linejoin:round;stroke-miterlimit:4;stroke-dasharray:30, 5;stroke-dashoffset:0;stroke-opacity:1"
         id="rect4822"
         width="80"
         height="80"
         x="8"
         y="8" /></clipPath><clipPath
       clipPathUnits="userSpaceOnUse"
       id="clipPath4824"><rect
         style="opacity:1;fill:#006600;fill-opacity:0.4;stroke:none;stroke-width:5;stroke-linecap:butt;stroke-linejoin:round;stroke-miterlimit:4;stroke-dasharray:30, 5;stroke-dashoffset:0;stroke-opacity:1"
         id="rect4826"
         width="80"
         height="80"
         x="8"
         y="8" /></clipPath><clipPath
       clipPathUnits="userSpaceOnUse"
       id="clipPath4828"><rect
         style="opacity:1;fill:#006600;fill-opacity:0.4;stroke:none;stroke-width:5;stroke-linecap:butt;stroke-linejoin:round;stroke-miterlimit:4;stroke-dasharray:30, 5;stroke-dashoffset:0;stroke-opacity:1"
         id="rect4830"
         width="80"
         height="80"
         x="8"
         y="8" /></clipPath><clipPath
       clipPathUnits="userSpaceOnUse"
       id="clipPath4832"><rect
         style="opacity:1;fill:#006600;fill-opacity:0.4;stroke:none;stroke-width:5;stroke-linecap:butt;stroke-linejoin:round;stroke-miterlimit:4;stroke-dasharray:30, 5;stroke-dashoffset:0;stroke-opacity:1"
         id="rect4834"
         width="80"
         height="80"
         x="8"
         y="8" /></clipPath><clipPath
       clipPathUnits="userSpaceOnUse"
       id="clipPath4836"><rect
         style="opacity:1;fill:#006600;fill-opacity:0.4;stroke:none;stroke-width:5;stroke-linecap:butt;stroke-linejoin:round;stroke-miterlimit:4;stroke-dasharray:30, 5;stroke-dashoffset:0;stroke-opacity:1"
         id="rect4838"
         width="80"
         height="80"
         x="8"
         y="8" /></clipPath></defs><sodipodi:namedview
     pagecolor="#ffffff"
     bordercolor="#666666"
     borderopacity="1"
     objecttolerance="10"
     gridtolerance="10"
     guidetolerance="10"
     inkscape:pageopacity="0"
     inkscape:pageshadow="2"
     inkscape:window-width="1680"
     inkscape:window-height="993"
     id="namedview4244"
     showgrid="false"
     inkscape:zoom="7.4541844"
     inkscape:cx="32.502276"
     inkscape:cy="32.432783"
     inkscape:window-x="0"
     inkscape:window-y="33"
     inkscape:window-maximized="1"
     inkscape:current-layer="Layer_1"
     fit-margin-top="0"
     fit-margin-left="0"
     fit-margin-right="0"
     fit-margin-bottom="0" /><style
     type="text/css"
     id="style4240">
	.st0{fill:#333333;}
</style><g
     id="g4270"
     inkscape:export-xdpi="44.310001"
     inkscape:export-ydpi="44.310001"><g
       transform="translate(-15.497724,-15.443575)"
       inkscape:export-ydpi="300"
       inkscape:export-xdpi="300"
       clip-path="url(#clipPath4836)"
       id="XMLID_1_"><path
         style="fill:#333333"
         inkscape:connector-curvature="0"
         d="m 75.6,30.5 -6.9,0 c 1,-1.7 1.7,-3.3 1.8,-4.6 0.3,-3.3 -0.6,-6.1 -2.6,-8.1 -1.8,-1.9 -4.1,-2.4 -6.8,-2.4 l -0.6,0 c -2.6,0.1 -5.6,1.3 -7.6,2.9 -2.1,1.7 -3.7,3.6 -4.9,6 -1.2,-2.4 -2.8,-4.4 -4.9,-6 -2.1,-1.6 -5,-2.9 -7.6,-2.9 l -0.1,0 c -2.8,0 -5.3,0.4 -7.2,2.4 -2.1,1.9 -2.9,4.7 -2.6,8.1 0.1,1.2 0.8,2.9 1.8,4.6 l -6.9,0 c -2.8,0 -5,2.2 -5,5 l 0,15 5,0 0,25 c 0,2.8 2.2,5 5,5 l 45,0 c 2.8,0 5,-2.2 5,-5 l 0,-25 5,0 0,-15 c 0,-2.8 -2.2,-5 -5,-5 l 0.1,0 z M 51.7,26.1 c 0.8,-1.8 2.1,-3.3 3.8,-4.6 1.5,-1.1 3.6,-1.9 5.3,-2.1 l 0.4,0 c 2.2,0 3.3,0.6 4,1.3 0.7,0.7 1.7,1.9 1.5,4.8 -0.3,0.9 -1.3,3.1 -2.5,5 l -14.5,0 2,-4.4 0,0 z M 31.1,20.7 c 0.7,-0.6 1.5,-1.3 4.6,-1.3 1.5,0 3.6,0.9 5.1,2.1 1.7,1.3 2.9,2.8 3.8,4.6 l 2.1,4.4 -14.6,0 c -1.3,-1.9 -2.2,-4 -2.5,-5 -0.1,-2.8 0.8,-4 1.5,-4.8 l 0,0 z m 14.5,54.8 -20,0 0,-25 20,0 0,25 0,0 z m 0,-30 -25,0 0,-10 25,0 0,10 0,0 z m 25,30 -20,0 0,-25 20,0 0,25 0,0 z m 5,-30 -25,0 0,-10 25,0 0,10 0,0 z"
         class="st0"
         id="XMLID_10_" /></g><path
       transform="translate(-15.497724,-15.443575)"
       inkscape:export-ydpi="300"
       inkscape:export-xdpi="300"
       clip-path="url(#clipPath4832)"
       inkscape:connector-curvature="0"
       id="path4804"
       d="m 24.226158,80.294784 c -1.884612,-0.495047 -3.257775,-1.991061 -3.605499,-3.928066 -0.0841,-0.468481 -0.104236,-2.972175 -0.106415,-13.231895 l -0.0027,-12.654083 -2.50691,0 -2.50691,0 0.02585,-7.916025 c 0.02276,-6.969093 0.04051,-7.963591 0.148366,-8.313661 0.53253,-1.728447 1.624479,-2.889726 3.260986,-3.468032 l 0.615593,-0.217537 3.935691,-0.02367 3.935691,-0.02368 -0.589017,-1.170469 c -0.625405,-1.242776 -1.019403,-2.314713 -1.152304,-3.13503 -0.13548,-0.836234 -0.101344,-2.6477 0.06845,-3.63256 0.34549,-2.003918 1.041319,-3.332616 2.480066,-4.73573 1.804237,-1.759551 3.564287,-2.365786 6.883823,-2.371074 1.396655,-0.0022 1.620129,0.01632 2.38829,0.198149 3.844446,0.910024 7.393084,3.54154 9.611038,7.127127 0.233156,0.376924 0.515444,0.86593 0.627307,1.086682 0.111863,0.220751 0.230564,0.401366 0.263779,0.401366 0.03322,0 0.135377,-0.154342 0.227025,-0.34298 1.04957,-2.160332 3.472012,-4.852549 5.659193,-6.28943 1.365028,-0.896762 3.262071,-1.672502 4.899157,-2.003364 1.575838,-0.318484 3.926811,-0.264613 5.463472,0.125193 1.408428,0.357277 2.395784,0.892775 3.397189,1.842484 1.876664,1.779784 2.86948,4.230157 2.861787,7.063192 -0.0048,1.765067 -0.269967,2.770267 -1.22865,4.657438 l -0.603421,1.187837 3.616929,0 c 4.103785,0 4.355344,0.02551 5.453488,0.553031 1.227319,0.589575 2.194472,1.799968 2.550474,3.191921 0.1463,0.572026 0.151926,0.883159 0.151926,8.401424 l 0,7.807399 -2.502761,0 -2.502761,0 -0.02035,13.039291 -0.02035,13.039291 -0.187027,0.528696 c -0.518465,1.465617 -1.673075,2.613128 -3.164283,3.14483 l -0.50077,0.178554 -23.382126,0.0154 c -22.809141,0.01502 -23.39588,0.01179 -23.943334,-0.132018 z M 45.627119,63 l 0,-12.51926 -10.015409,0 -10.015408,0 0,12.51926 0,12.51926 10.015408,0 10.015409,0 0,-12.51926 z m 25.03852,0 0,-12.51926 -10.053929,0 -10.053929,0 0,12.51926 0,12.51926 10.053929,0 10.053929,0 0,-12.51926 z m -25.03852,-22.496148 0,-5.046225 -12.519261,0 -12.51926,0 0,5.046225 0,5.046225 12.51926,0 12.519261,0 0,-5.046225 z m 30.007704,0 0,-5.007704 -12.538521,-0.01949 -12.538521,-0.01949 0,5.046688 0,5.046688 12.538521,-0.01949 12.538521,-0.01949 0,-5.007704 z M 46.705701,30.476704 c 0,-0.120884 -2.20857,-4.672334 -2.545944,-5.246716 -1.223052,-2.082254 -3.202899,-3.944868 -5.260539,-4.949048 -1.658188,-0.809237 -2.841954,-1.031212 -4.565052,-0.856022 -1.634839,0.166216 -2.468382,0.50059 -3.267995,1.310948 -0.886991,0.898911 -1.32054,1.979627 -1.472356,3.67017 -0.08195,0.912496 -0.07981,0.938857 0.124536,1.540832 0.11435,0.33685 0.445701,1.108355 0.736335,1.714457 0.500051,1.042828 0.76495,1.521811 1.361139,2.461171 l 0.256707,0.404469 7.316584,0 c 4.024122,0 7.316585,-0.02262 7.316585,-0.05026 z m 18.060271,-0.854978 c 0.605561,-1.056812 1.394926,-2.654329 1.733076,-3.507399 0.211069,-0.532474 0.23747,-0.687216 0.23747,-1.391859 0,-1.79965 -0.457858,-3.003235 -1.548401,-4.070332 -0.798188,-0.781026 -1.928785,-1.188216 -3.537733,-1.274131 -0.92107,-0.04918 -1.645113,0.06455 -2.849151,0.447555 -1.058634,0.336751 -2.619946,1.128392 -3.418147,1.733123 -1.30839,0.991258 -2.563616,2.388645 -3.253061,3.621489 -0.28835,0.515617 -2.419701,5.168075 -2.419701,5.281886 0,0.0357 3.270811,0.06491 7.26847,0.06491 l 7.268469,0 0.518709,-0.905239 z"
       style="opacity:1;fill:#006600;fill-opacity:0.4;stroke:none;stroke-width:5;stroke-linecap:butt;stroke-linejoin:round;stroke-miterlimit:4;stroke-dasharray:30, 5;stroke-dashoffset:0;stroke-opacity:1" /><path
       transform="translate(-15.497724,-15.443575)"
       inkscape:export-ydpi="300"
       inkscape:export-xdpi="300"
       clip-path="url(#clipPath4828)"
       inkscape:connector-curvature="0"
       id="path4806"
       d="m 25.623307,62.984872 0,-12.409138 9.92731,0 9.92731,0 0,12.409138 0,12.409138 -9.92731,0 -9.92731,0 0,-12.409138 z"
       style="opacity:1;fill:#006600;fill-opacity:0.4;stroke:none;stroke-width:5;stroke-linecap:butt;stroke-linejoin:round;stroke-miterlimit:4;stroke-dasharray:30, 5;stroke-dashoffset:0;stroke-opacity:1" /><path
       transform="translate(-15.497724,-15.443575)"
       inkscape:export-ydpi="300"
       inkscape:export-xdpi="300"
       clip-path="url(#clipPath4824)"
       inkscape:connector-curvature="0"
       id="path4808"
       d="m 50.709887,62.984872 0,-12.409138 9.92731,0 9.92731,0 0,12.409138 0,12.409138 -9.92731,0 -9.92731,0 0,-12.409138 z"
       style="opacity:1;fill:#006600;fill-opacity:0.4;stroke:none;stroke-width:5;stroke-linecap:butt;stroke-linejoin:round;stroke-miterlimit:4;stroke-dasharray:30, 5;stroke-dashoffset:0;stroke-opacity:1" /><path
       transform="translate(-15.497724,-15.443575)"
       inkscape:export-ydpi="300"
       inkscape:export-xdpi="300"
       clip-path="url(#clipPath4820)"
       inkscape:connector-curvature="0"
       id="path4810"
       d="m 50.709887,40.514272 0,-4.963655 12.409138,0 12.409137,0 0,4.963655 0,4.963655 -12.409137,0 -12.409138,0 0,-4.963655 z"
       style="opacity:1;fill:#006600;fill-opacity:0.4;stroke:none;stroke-width:5;stroke-linecap:butt;stroke-linejoin:round;stroke-miterlimit:4;stroke-dasharray:30, 5;stroke-dashoffset:0;stroke-opacity:1" /><path
       transform="translate(-15.497724,-15.443575)"
       inkscape:export-ydpi="300"
       inkscape:export-xdpi="300"
       clip-path="url(#clipPath4816)"
       inkscape:connector-curvature="0"
       id="path4812"
       d="m 20.659652,40.514272 0,-4.963655 12.409137,0 12.409138,0 0,4.963655 0,4.963655 -12.409138,0 -12.409137,0 0,-4.963655 z"
       style="opacity:1;fill:#006600;fill-opacity:0.4;stroke:none;stroke-width:5;stroke-linecap:butt;stroke-linejoin:round;stroke-miterlimit:4;stroke-dasharray:30, 5;stroke-dashoffset:0;stroke-opacity:1" /></g></svg>